<svg xmlns="http://www.w3.org/2000/svg" viewBox="7.099999904632568 7.300000190734863 69.70000457763672 43.5" data-asc="0.932" width="69.70000457763672" height="43.5"><defs/><g fill="#09ecdd"><g transform="translate(0, 0)"><path d="M27.15 7.30L34.30 7.30Q34.75 7.30 35.08 7.63Q35.40 7.95 35.40 8.27Q35.40 8.60 35.30 8.85L17.40 49.30Q16.80 50.80 15.20 50.80L8.20 50.80Q7.75 50.80 7.43 50.48Q7.10 50.15 7.10 49.83Q7.10 49.50 7.20 49.25L24.95 8.80Q25.50 7.30 27.15 7.30ZM76.80 28.05L76.80 30.15Q76.80 31.30 75.35 32.25L54.35 45.75Q54.10 45.90 53.73 45.90Q53.35 45.90 53.05 45.60Q52.75 45.30 52.75 44.85L52.75 36.75Q52.75 35.85 53.15 35.50Q53.55 35.15 53.65 35.10Q54.30 34.60 54.35 34.60L63.10 29.10L54.35 23.60Q54.15 23.60 53.63 23.13Q53.10 22.65 53 22.50Q52.75 21.85 52.75 21.45L52.75 13.35Q52.75 12.90 53.05 12.60Q53.35 12.30 53.73 12.30Q54.10 12.30 54.35 12.45L75.35 25.95Q76.80 26.90 76.80 28.05Z"/></g></g></svg>